<?xml version="1.0" encoding="utf-8"?>
<!-- Generator: Adobe Illustrator 23.1.0, SVG Export Plug-In . SVG Version: 6.00 Build 0)  -->
<svg version="1.1" id="Layer_1" xmlns="http://www.w3.org/2000/svg" xmlns:xlink="http://www.w3.org/1999/xlink" x="0px" y="0px"
	 viewBox="0 0 236.92 74.87" style="enable-background:new 0 0 236.92 74.87;" xml:space="preserve">
<style type="text/css">
	.st0{fill:#444444;}
	.st1{clip-path:url(#SVGID_2_);}
	.st2{clip-path:url(#SVGID_4_);}
</style>
<g>
	<g>
		<path d="M103.98,20.72v-4.23c0-4.91-2.72-7.37-8.16-7.37s-8.16,2.46-8.16,7.37v1.39h5.52v-1.34c0-1.59,0.87-2.39,2.61-2.39
			c1.74,0,2.61,0.8,2.61,2.39v4.18h-1h-3.33H76.07h-3.38h-0.95l-4.93-7.46c-1.76-2.65-3.85-3.98-6.27-3.98
			c-1.09,0-1.97,0.05-2.64,0.15V14c0.3-0.03,0.73-0.05,1.29-0.05c1.46,0,2.67,0.68,3.63,2.04l3.23,4.73H42.63v4.68h13.59v6.42h-2.59
			c-5.28,0-7.91,2.31-7.91,6.92v5.13c0,4.68,2.64,7.02,7.91,7.02c5.27,0,7.91-2.34,7.91-7.02v-7.31h4.73v17.17h5.42V25.4h0.99h3.38
			h11.3c0.33,0.73,0.5,1.64,0.5,2.74v5.77c0,1.73-0.93,2.59-2.79,2.59c-0.96,0-1.89-0.15-2.79-0.45v-4.78h-5.52v14.38
			c0,2.56,0.83,4.58,2.49,6.07c1.66,1.49,3.98,2.24,6.97,2.24c2.99,0,5.47-0.33,7.46-1v-5.18c-2.06,0.76-4.2,1.14-6.42,1.14
			c-3.32,0-4.98-1.14-4.98-3.43v-4.58c0.9,0.3,2.07,0.45,3.53,0.45c5.04,0,7.56-2.45,7.56-7.36v-5.87c0-1.19-0.1-2.11-0.3-2.74h0.99
			h3.33h1v28.31h5.57V25.4h121.1v-4.68H103.98z M56.21,43.66c0,0.83-0.17,1.44-0.52,1.84c-0.35,0.4-1.04,0.6-2.06,0.6
			c-1.03,0-1.72-0.2-2.07-0.6c-0.35-0.4-0.52-1.01-0.52-1.84v-4.73c0-0.83,0.17-1.43,0.52-1.82c0.35-0.38,1.04-0.57,2.07-0.57h2.59
			V43.66z M66.27,31.82h-4.73V25.4h4.73V31.82z"/>
	</g>
	<g>
		<g>
			<path class="st0" d="M110.63,28.42h5.93c2,0,3.5,0.54,4.5,1.61s1.5,2.65,1.5,4.72v2.53c0,2.08-0.5,3.65-1.5,4.72
				s-2.5,1.61-4.5,1.61h-1.9v10.44h-4.03V28.42z M116.56,39.95c0.66,0,1.15-0.18,1.48-0.55s0.49-0.99,0.49-1.87V34.5
				c0-0.88-0.16-1.5-0.49-1.87s-0.82-0.55-1.48-0.55h-1.9v7.87H116.56z"/>
		</g>
		<g>
			<path class="st0" d="M124.77,28.42h10.99v3.66h-6.96v6.77h5.53v3.66h-5.53v7.87h6.96v3.66h-10.99V28.42z"/>
		</g>
		<g>
			<path class="st0" d="M138.06,28.42h4.03v10.44h4.32V28.42h4.03v25.63h-4.03V42.52h-4.32v11.54h-4.03V28.42z"/>
		</g>
		<g>
			<path class="st0" d="M156.55,28.42h5.46l4.17,25.63h-4.03l-0.73-5.09v0.07h-4.58l-0.73,5.02h-3.74L156.55,28.42z M160.95,45.56
				l-1.79-12.67h-0.07l-1.76,12.67H160.95z"/>
		</g>
		<g>
			<path class="st0" d="M169.31,52.77c-1.01-1.1-1.52-2.65-1.52-4.65V34.35c0-2,0.51-3.55,1.52-4.65c1.01-1.1,2.48-1.65,4.41-1.65
				s3.4,0.55,4.41,1.65c1.01,1.1,1.52,2.65,1.52,4.65v2.71h-3.81V34.1c0-1.59-0.67-2.38-2.01-2.38c-1.34,0-2.01,0.79-2.01,2.38
				v14.32c0,1.56,0.67,2.34,2.01,2.34c1.34,0,2.01-0.78,2.01-2.34V44.5h3.81v3.63c0,2-0.51,3.55-1.52,4.65
				c-1.01,1.1-2.48,1.65-4.41,1.65S170.33,53.87,169.31,52.77z"/>
		</g>
		<g>
			<path class="st0" d="M182.08,28.42h4.03v10.44h4.32V28.42h4.03v25.63h-4.03V42.52h-4.32v11.54h-4.03V28.42z"/>
		</g>
		<g>
			<path class="st0" d="M200.57,28.42h5.46l4.17,25.63h-4.03l-0.73-5.09v0.07h-4.58l-0.73,5.02h-3.74L200.57,28.42z M204.96,45.56
				l-1.79-12.67h-0.07l-1.76,12.67H204.96z"/>
		</g>
		<g>
			<path class="st0" d="M212.14,28.42h5.05l3.92,15.34h0.07V28.42h3.59v25.63h-4.14l-4.83-18.71h-0.07v18.71h-3.59V28.42z"/>
		</g>
	</g>
	<g>
		<path d="M35.18,53.92c-3.46-0.11-6.92-0.03-10.39-0.03c0,0,0,0-0.01,0V39.08c6.85-0.04,12.7,5.25,13.12,11.88
			C38.01,52.86,37.38,53.99,35.18,53.92z"/>
	</g>
	<g>
		<defs>
			<path id="SVGID_1_" d="M24.78,39.08v14.82c-3.53,0-7.08-0.07-10.61,0.03c-2.02,0.05-2.58-0.8-2.46-2.71
				c0.38-6.63,6.14-12.06,13.01-12.14H24.78z"/>
		</defs>
		<clipPath id="SVGID_2_">
			<use xlink:href="#SVGID_1_"  style="overflow:visible;"/>
		</clipPath>
		<g class="st1">
			<rect x="-11.55" y="13.78" width="67.42" height="0.37"/>
		</g>
		<g class="st1">
			<rect x="-11.55" y="15.48" width="67.42" height="0.37"/>
		</g>
		<g class="st1">
			<rect x="-11.55" y="17.17" width="67.42" height="0.37"/>
		</g>
		<g class="st1">
			<rect x="-11.55" y="18.86" width="67.42" height="0.37"/>
		</g>
		<g class="st1">
			<rect x="-11.55" y="20.55" width="67.42" height="0.37"/>
		</g>
		<g class="st1">
			<rect x="-11.55" y="22.25" width="67.42" height="0.37"/>
		</g>
		<g class="st1">
			<rect x="-11.55" y="23.94" width="67.42" height="0.37"/>
		</g>
		<g class="st1">
			<rect x="-11.55" y="25.63" width="67.42" height="0.37"/>
		</g>
		<g class="st1">
			<rect x="-11.55" y="27.32" width="67.42" height="0.37"/>
		</g>
		<g class="st1">
			<rect x="-11.55" y="29.02" width="67.42" height="0.37"/>
		</g>
		<g class="st1">
			<rect x="-11.55" y="30.71" width="67.42" height="0.37"/>
		</g>
		<g class="st1">
			<rect x="-11.55" y="32.4" width="67.42" height="0.37"/>
		</g>
		<g class="st1">
			<rect x="-11.55" y="34.09" width="67.42" height="0.37"/>
		</g>
		<g class="st1">
			<rect x="-11.55" y="35.79" width="67.42" height="0.37"/>
		</g>
		<g class="st1">
			<rect x="-11.55" y="37.48" width="67.42" height="0.37"/>
		</g>
		<g class="st1">
			<rect x="-11.55" y="39.17" width="67.42" height="0.37"/>
		</g>
		<g class="st1">
			<rect x="-11.55" y="40.92" width="67.42" height="0.37"/>
		</g>
		<g class="st1">
			<rect x="-11.55" y="42.68" width="67.42" height="0.37"/>
		</g>
		<g class="st1">
			<rect x="-11.55" y="44.43" width="67.42" height="0.37"/>
		</g>
		<g class="st1">
			<rect x="-11.55" y="46.18" width="67.42" height="0.37"/>
		</g>
		<g class="st1">
			<rect x="-11.55" y="47.93" width="67.42" height="0.37"/>
		</g>
		<g class="st1">
			<rect x="-11.55" y="49.68" width="67.42" height="0.37"/>
		</g>
		<g class="st1">
			<rect x="-11.55" y="51.43" width="67.42" height="0.37"/>
		</g>
		<g class="st1">
			<rect x="-11.55" y="53.18" width="67.42" height="0.37"/>
		</g>
		<g class="st1">
			<rect x="-11.55" y="54.4" width="67.42" height="0.37"/>
		</g>
		<g class="st1">
			<rect x="-11.55" y="56.1" width="67.42" height="0.37"/>
		</g>
		<g class="st1">
			<rect x="-11.55" y="57.79" width="67.42" height="0.37"/>
		</g>
		<g class="st1">
			<rect x="-11.55" y="59.48" width="67.42" height="0.37"/>
		</g>
		<g class="st1">
			<rect x="-11.55" y="61.17" width="67.42" height="0.37"/>
		</g>
		<g class="st1">
			<rect x="-11.55" y="62.87" width="67.42" height="0.37"/>
		</g>
		<g class="st1">
			<rect x="-11.55" y="64.56" width="67.42" height="0.37"/>
		</g>
	</g>
	<g>
		<path d="M32.61,28.27c0,4.4-3.31,7.76-7.68,7.78h-0.14V20.55C29,20.48,32.61,24.04,32.61,28.27z"/>
	</g>
	<g>
		<defs>
			<path id="SVGID_3_" d="M24.78,20.55v15.51c-4.31-0.04-7.71-3.38-7.74-7.64C17.01,24.16,20.5,20.62,24.78,20.55L24.78,20.55z"/>
		</defs>
		<clipPath id="SVGID_4_">
			<use xlink:href="#SVGID_3_"  style="overflow:visible;"/>
		</clipPath>
		<g class="st2">
			<g>
				<rect x="-11.55" y="13.78" width="67.42" height="0.37"/>
			</g>
			<g>
				<rect x="-11.55" y="15.48" width="67.42" height="0.37"/>
			</g>
			<g>
				<rect x="-11.55" y="17.17" width="67.42" height="0.37"/>
			</g>
			<g>
				<rect x="-11.55" y="18.86" width="67.42" height="0.37"/>
			</g>
			<g>
				<rect x="-11.55" y="20.55" width="67.42" height="0.37"/>
			</g>
			<g>
				<rect x="-11.55" y="22.25" width="67.42" height="0.37"/>
			</g>
			<g>
				<rect x="-11.55" y="23.94" width="67.42" height="0.37"/>
			</g>
			<g>
				<rect x="-11.55" y="25.63" width="67.42" height="0.37"/>
			</g>
			<g>
				<rect x="-11.55" y="27.32" width="67.42" height="0.37"/>
			</g>
			<g>
				<rect x="-11.55" y="29.02" width="67.42" height="0.37"/>
			</g>
			<g>
				<rect x="-11.55" y="30.71" width="67.42" height="0.37"/>
			</g>
			<g>
				<rect x="-11.55" y="32.4" width="67.42" height="0.37"/>
			</g>
			<g>
				<rect x="-11.55" y="34.09" width="67.42" height="0.37"/>
			</g>
			<g>
				<rect x="-11.55" y="35.79" width="67.42" height="0.37"/>
			</g>
			<g>
				<rect x="-11.55" y="37.48" width="67.42" height="0.37"/>
			</g>
			<g>
				<rect x="-11.55" y="39.17" width="67.42" height="0.37"/>
			</g>
			<g>
				<rect x="-11.55" y="40.86" width="67.42" height="0.37"/>
			</g>
			<g>
				<rect x="-11.55" y="42.56" width="67.42" height="0.37"/>
			</g>
			<g>
				<rect x="-11.55" y="44.25" width="67.42" height="0.37"/>
			</g>
			<g>
				<rect x="-11.55" y="45.94" width="67.42" height="0.37"/>
			</g>
			<g>
				<rect x="-11.55" y="47.63" width="67.42" height="0.37"/>
			</g>
			<g>
				<rect x="-11.55" y="49.33" width="67.42" height="0.37"/>
			</g>
			<g>
				<rect x="-11.55" y="51.02" width="67.42" height="0.37"/>
			</g>
			<g>
				<rect x="-11.55" y="52.71" width="67.42" height="0.37"/>
			</g>
			<g>
				<rect x="-11.55" y="54.4" width="67.42" height="0.37"/>
			</g>
			<g>
				<rect x="-11.55" y="56.1" width="67.42" height="0.37"/>
			</g>
			<g>
				<rect x="-11.55" y="57.79" width="67.42" height="0.37"/>
			</g>
			<g>
				<rect x="-11.55" y="59.48" width="67.42" height="0.37"/>
			</g>
			<g>
				<rect x="-11.55" y="61.17" width="67.42" height="0.37"/>
			</g>
			<g>
				<rect x="-11.55" y="62.87" width="67.42" height="0.37"/>
			</g>
			<g>
				<rect x="-11.55" y="64.56" width="67.42" height="0.37"/>
			</g>
		</g>
	</g>
</g>
</svg>
